<?xml version="1.0" encoding="UTF-8"?>
<svg id="Vrstva_2" data-name="Vrstva 2" xmlns="http://www.w3.org/2000/svg" viewBox="0 0 145.26 145.26">
  <defs>
    <style>
      .cls-1, .cls-2 {
        fill: none;
      }

      .cls-3 {
        fill: #1d1e1b;
      }

      .cls-2 {
        stroke: #fabf84;
        stroke-miterlimit: 10;
      }

      .cls-4 {
        fill: #232138;
      }
    </style>
  </defs>
  <g id="Vrstva_2-2" data-name="Vrstva 2">
    <g>
      <polygon class="cls-1" points="130.74 0 116.21 0 101.68 0 87.16 0 72.63 0 58.11 0 43.58 0 29.05 0 14.53 0 0 0 0 14.53 0 29.05 0 43.58 0 58.11 0 72.63 0 87.16 0 101.68 0 116.21 0 130.74 0 145.26 14.53 145.26 29.05 145.26 43.58 145.26 58.11 145.26 72.63 145.26 87.16 145.26 101.68 145.26 116.21 145.26 130.74 145.26 145.26 145.26 145.26 130.74 145.26 116.21 145.26 101.68 145.26 87.16 145.26 72.63 145.26 58.11 145.26 43.58 145.26 29.05 145.26 14.53 145.26 0 130.74 0"/>
      <g>
        <g>
          <polygon class="cls-3" points="130.74 14.52 130.74 43.57 87.16 43.57 87.16 130.73 58.1 130.73 58.1 43.57 14.52 43.57 14.52 14.52 130.74 14.52"/>
          <path class="cls-3" d="M43.58,58.11v72.63c-8.03,0-15.29-3.25-20.55-8.51s-8.51-12.53-8.51-20.55v-43.57h29.06Z"/>
          <path class="cls-3" d="M130.74,58.11v43.57c0,8.02-3.25,15.29-8.51,20.55s-12.52,8.51-20.55,8.51V58.11h29.06Z"/>
        </g>
        <g>
          <polygon class="cls-4" points="130.74 14.52 130.74 43.57 87.16 43.57 87.16 130.73 58.1 130.73 58.1 43.57 14.52 43.57 14.52 14.52 130.74 14.52"/>
          <path class="cls-4" d="M43.58,58.11v72.63c-8.03,0-15.29-3.25-20.55-8.51s-8.51-12.53-8.51-20.55v-43.57h29.06Z"/>
          <path class="cls-4" d="M130.74,58.11v43.57c0,8.02-3.25,15.29-8.51,20.55s-12.52,8.51-20.55,8.51V58.11h29.06Z"/>
        </g>
        <g>
          <polygon class="cls-2" points="130.74 14.52 130.74 43.57 87.16 43.57 87.16 130.73 58.1 130.73 58.1 43.57 14.52 43.57 14.52 14.52 130.74 14.52"/>
          <path class="cls-2" d="M43.58,58.11v72.63c-8.03,0-15.29-3.25-20.55-8.51s-8.51-12.53-8.51-20.55v-43.57h29.06Z"/>
          <path class="cls-2" d="M130.74,58.11v43.57c0,8.02-3.25,15.29-8.51,20.55s-12.52,8.51-20.55,8.51V58.11h29.06Z"/>
        </g>
      </g>
    </g>
  </g>
</svg>