<svg width="15" height="15" viewBox="0 0 15 15" fill="none" xmlns="http://www.w3.org/2000/svg">
<path d="M10.72 0.34491C10.7045 0.253431 10.6626 0.165698 10.5939 0.101013C10.5253 0.0363275 10.4366 -1.24574e-05 10.345 -1.24574e-05C10.2534 -1.24574e-05 10.1646 0.0363275 10.096 0.101013C10.0273 0.165698 9.98542 0.253431 9.96997 0.34491C9.92828 0.583968 9.87799 0.816198 9.81938 1.04631C9.28999 3.11577 8.10258 4.80917 6.57885 6.11309C5.04895 7.41643 3.17185 8.34728 1.05911 8.82752C0.82281 8.88077 0.58745 8.92821 0.344971 8.96991C0.253492 8.98536 0.165759 9.02723 0.101074 9.09594C0.0363886 9.16459 4.87566e-05 9.25329 4.87566e-05 9.34491C4.87566e-05 9.43652 0.0363886 9.52523 0.101074 9.59387C0.165759 9.66259 0.253492 9.70446 0.344971 9.71991C0.604024 9.76154 0.861255 9.79273 1.12458 9.81285C3.47841 10.0046 5.99787 9.24895 7.87795 7.63373C9.76831 6.04805 10.946 3.54754 10.8028 1.13599C10.7895 0.869043 10.7616 0.606662 10.72 0.34491Z" fill="url(#paint0_linear_63_181)"/>
<path d="M12.9971 4.07973C13.067 4.02491 13.1615 3.99964 13.2552 4.00511C13.3492 4.01084 13.4348 4.04686 13.4975 4.1096C13.5603 4.17235 13.5963 4.25794 13.602 4.35192C13.6075 4.44565 13.5822 4.54008 13.5274 4.61006C13.5274 4.61006 13.5274 4.61006 13.5274 4.61006C13.4733 4.67891 13.4192 4.74775 13.365 4.8166C12.4995 5.91781 11.6339 7.01903 10.7683 8.12025L11.0337 7.47953C11.0546 7.6538 11.0755 7.82808 11.0963 8.00235C11.1068 8.0893 11.1172 8.17624 11.1276 8.26319C11.1598 8.5284 11.0827 8.78276 10.8946 8.97029C10.7076 9.15783 10.425 9.26319 10.1276 9.26319C9.83016 9.26319 9.54758 9.15783 9.36058 8.9703C9.1725 8.78276 9.09537 8.52841 9.12759 8.26319C9.12759 8.26319 9.12759 8.26319 9.12759 8.26319C9.13801 8.17624 9.14842 8.0893 9.15884 8.00235C9.17972 7.82808 9.2006 7.6538 9.22148 7.47953C9.24281 7.30148 9.34588 6.94963 9.48687 6.83881C10.5881 5.97323 11.6893 5.10765 12.7905 4.24207C12.8594 4.18796 12.9282 4.13384 12.9971 4.07973Z" fill="url(#paint1_linear_63_181)"/>
<path d="M4.32983 12.7471C4.27483 12.8171 4.24939 12.9115 4.2548 13.0053C4.26046 13.0993 4.29652 13.185 4.35935 13.2479C4.42218 13.3107 4.50788 13.3468 4.60193 13.3524C4.69572 13.3578 4.79016 13.3324 4.86016 13.2774C4.86016 13.2774 4.86016 13.2774 4.86016 13.2774C4.92979 13.2225 4.99942 13.1676 5.06905 13.1127C6.18544 12.2325 7.30184 11.3523 8.41824 10.4721L7.77669 10.7378C7.94985 10.7583 8.12302 10.7788 8.29618 10.7993C8.38424 10.8097 8.47229 10.8201 8.56035 10.8305C8.82556 10.8623 9.07992 10.7848 9.26745 10.5968C9.45499 10.4098 9.56035 10.1275 9.56035 9.83052C9.56035 9.5335 9.45499 9.25127 9.26745 9.06427C9.07992 8.8762 8.82556 8.79871 8.56035 8.83052C8.56035 8.83052 8.56035 8.83052 8.56035 8.83052C8.47229 8.84094 8.38424 8.85136 8.29618 8.86177C8.12302 8.88226 7.94985 8.90274 7.77669 8.92323C7.59837 8.94432 7.24631 9.04796 7.13513 9.18897C6.25493 10.3054 5.37472 11.4218 4.49452 12.5382C4.43962 12.6078 4.38472 12.6774 4.32983 12.7471Z" fill="url(#paint2_linear_63_181)"/>
<path d="M11.1158 10.5119C11.0695 10.6845 10.9347 10.8192 10.7622 10.8655L7.8454 11.6472C7.67306 11.6932 7.48891 11.6441 7.36271 11.518L5.22758 9.38292C5.10145 9.25674 5.05247 9.07259 5.09845 8.90024L5.88014 5.98342C5.92637 5.81087 6.06114 5.6761 6.23369 5.62987L9.14981 4.84887C9.32233 4.80265 9.50619 4.85174 9.6325 4.978L11.7676 7.11313C11.8938 7.23944 11.943 7.42335 11.8968 7.59582L11.1158 10.5119Z" fill="#2A2948" stroke="url(#paint3_linear_63_181)"/>
<defs>
<linearGradient id="paint0_linear_63_181" x1="5.34497" y1="0.34491" x2="5.34497" y2="9.34491" gradientUnits="userSpaceOnUse">
<stop stop-color="#8F7458"/>
<stop offset="1" stop-color="#FFC183"/>
</linearGradient>
<linearGradient id="paint1_linear_63_181" x1="13.4581" y1="4.54081" x2="9.93167" y2="8.06727" gradientUnits="userSpaceOnUse">
<stop stop-color="#FFC183"/>
<stop offset="1" stop-color="#8F7458"/>
</linearGradient>
<linearGradient id="paint2_linear_63_181" x1="4.7909" y1="13.2081" x2="8.36443" y2="9.63461" gradientUnits="userSpaceOnUse">
<stop stop-color="#FFC183"/>
<stop offset="1" stop-color="#8F7458"/>
</linearGradient>
<linearGradient id="paint3_linear_63_181" x1="11.4492" y1="11.1991" x2="5.54646" y2="5.29629" gradientUnits="userSpaceOnUse">
<stop stop-color="#FFC183"/>
<stop offset="1" stop-color="#8F7458"/>
</linearGradient>
</defs>
</svg>
