<svg width="11" height="11" viewBox="0 0 11 11" fill="none" xmlns="http://www.w3.org/2000/svg">
<path d="M10.72 0.34491C10.7045 0.253431 10.6626 0.165698 10.5939 0.101013C10.5253 0.0363275 10.4366 -1.24574e-05 10.345 -1.24574e-05C10.2534 -1.24574e-05 10.1646 0.0363275 10.096 0.101013C10.0273 0.165698 9.98542 0.253431 9.96997 0.34491C9.92828 0.583968 9.87799 0.816198 9.81938 1.04631C9.28999 3.11577 8.10258 4.80917 6.57885 6.11309C5.04895 7.41643 3.17185 8.34728 1.05911 8.82752C0.82281 8.88077 0.58745 8.92821 0.344971 8.96991C0.253492 8.98536 0.165759 9.02723 0.101074 9.09594C0.0363886 9.16459 4.87566e-05 9.25329 4.87566e-05 9.34491C4.87566e-05 9.43652 0.0363886 9.52523 0.101074 9.59387C0.165759 9.66259 0.253492 9.70446 0.344971 9.71991C0.604024 9.76154 0.861255 9.79273 1.12458 9.81285C3.47841 10.0046 5.99787 9.24895 7.87795 7.63373C9.76831 6.04805 10.946 3.54754 10.8028 1.13599C10.7895 0.869043 10.7616 0.606662 10.72 0.34491Z" fill="url(#paint0_linear_63_182)"/>
<path d="M8.5947 7.99041C8.54849 8.16284 8.41353 8.29764 8.24114 8.34396L7.04652 8.66437C6.87415 8.71049 6.6901 8.6613 6.56384 8.53524L5.68962 7.66102C5.56333 7.53473 5.5136 7.35017 5.5598 7.17765L5.88021 5.98302C5.92655 5.81068 6.06136 5.67567 6.23376 5.62947L7.42769 5.30975C7.60024 5.26352 7.78476 5.31326 7.91107 5.43957L8.78528 6.31379C8.91138 6.44009 8.96061 6.62406 8.91441 6.79647L8.5947 7.99041Z" fill="#2A2948" stroke="url(#paint1_linear_63_182)"/>
<defs>
<linearGradient id="paint0_linear_63_182" x1="5.34497" y1="0.34491" x2="5.34497" y2="9.34491" gradientUnits="userSpaceOnUse">
<stop stop-color="#8F7458"/>
<stop offset="1" stop-color="#FFC183"/>
</linearGradient>
<linearGradient id="paint1_linear_63_182" x1="8.92794" y1="8.67777" x2="5.54653" y2="5.29635" gradientUnits="userSpaceOnUse">
<stop stop-color="#FFC183"/>
<stop offset="1" stop-color="#8F7458"/>
</linearGradient>
</defs>
</svg>
