<svg width="25" height="46" viewBox="0 0 25 46" fill="none" xmlns="http://www.w3.org/2000/svg">
<path d="M19.5634 14.9999C19.6336 14.9385 19.7285 14.9072 19.8247 14.9103C19.9211 14.9136 20.0108 14.951 20.0767 15.0169C20.1426 15.0828 20.18 15.1725 20.1833 15.2689C20.1864 15.365 20.1551 15.46 20.0937 15.5302C20.0937 15.5302 20.0937 15.5302 20.0937 15.5302C19.9901 15.6485 19.8865 15.7669 19.783 15.8852C18.1261 17.7777 16.4693 19.6701 14.8124 21.5626L15.0778 20.9219C15.0987 21.2364 15.1196 21.5509 15.1404 21.8654C15.1509 22.0223 15.1613 22.1792 15.1717 22.3361C15.1895 22.6013 15.0998 22.8557 14.912 23.0432C14.7247 23.2308 14.4548 23.3361 14.1717 23.3361C13.8886 23.3361 13.6186 23.2308 13.4314 23.0432C13.2435 22.8557 13.1538 22.6013 13.1717 22.3361C13.1717 22.3361 13.1717 22.3361 13.1717 22.3361C13.1821 22.1792 13.1925 22.0223 13.2029 21.8654C13.2238 21.5509 13.2447 21.2364 13.2656 20.9219C13.2774 20.743 13.396 20.3993 13.531 20.2812C15.4235 18.6243 17.3159 16.9675 19.2084 15.3106C19.3267 15.2071 19.4451 15.1035 19.5634 14.9999Z" fill="url(#paint0_linear_54_113)"/>
<path d="M11.0894 35.3853C11.0956 35.4784 11.1405 35.5677 11.2107 35.6336C11.2811 35.6995 11.3711 35.7365 11.4644 35.7365C11.5576 35.7365 11.6476 35.6995 11.718 35.6336C11.7882 35.5677 11.8332 35.4784 11.8394 35.3853C11.8394 35.3853 11.8394 35.3853 11.8394 35.3853C11.8498 35.2263 11.8602 35.0674 11.8706 34.9085C12.0376 32.3607 12.2046 29.8129 12.3717 27.2651L12.1059 27.9067C12.3414 27.7002 12.5768 27.4937 12.8123 27.2872C12.932 27.1822 13.0517 27.0772 13.1715 26.9722C13.3715 26.7972 13.4877 26.5537 13.4875 26.2883C13.4877 26.0233 13.3715 25.758 13.1715 25.558C12.9715 25.358 12.7062 25.2418 12.4412 25.242C12.1758 25.2418 11.9323 25.358 11.7572 25.558C11.7572 25.558 11.7572 25.558 11.7572 25.558C11.6523 25.6778 11.5473 25.7975 11.4423 25.9172C11.2358 26.1527 11.0293 26.3881 10.8228 26.6236C10.7044 26.7586 10.5453 27.086 10.5571 27.2651C10.7241 29.8129 10.8911 32.3607 11.0581 34.9085C11.0685 35.0674 11.0789 35.2263 11.0894 35.3853Z" fill="url(#paint1_linear_54_113)"/>
<path d="M22.7295 0.530302C22.5527 0.353525 22.376 0.176748 22.1992 -2.83122e-05C21.5424 0.597831 20.8871 1.19716 20.2333 1.79797C14.3487 7.20522 8.58348 12.7318 2.93758 18.3777C2.87747 18.4378 2.81737 18.4979 2.75729 18.5581L2.4646 18.8505L2.46441 19.2651C2.46797 27.1646 2.6367 35.0641 2.97061 42.9636C3.00811 43.8508 3.04769 44.738 3.08936 45.6251C3.33936 45.6251 3.58936 45.6251 3.83936 45.6251C3.88102 44.738 3.92061 43.8508 3.95811 42.9636C4.29201 35.0641 4.46074 27.1646 4.4643 19.2651L4.17142 19.9722C4.23156 19.9121 4.29168 19.852 4.35179 19.7919C9.99769 14.146 15.5243 8.38079 20.9315 2.49624C21.5323 1.8424 22.1317 1.18709 22.7295 0.530302Z" fill="url(#paint2_linear_54_113)"/>
<path d="M24.7304 4.52969C24.7952 4.45743 24.8323 4.36325 24.8312 4.26541C24.83 4.1676 24.7911 4.07452 24.7224 4.00617C24.6538 3.93783 24.5605 3.89932 24.4627 3.89863C24.3648 3.89792 24.2708 3.93548 24.1989 4.00059C24.1989 4.00059 24.1989 4.00059 24.1989 4.00059C23.6038 4.53939 23.0102 5.07965 22.418 5.62139C17.0888 10.497 11.8792 15.4917 6.78915 20.6054C6.7114 20.6835 6.63368 20.7617 6.55599 20.8398L6.26506 21.1317L6.26477 21.5452C6.26984 28.6502 6.43855 35.7551 6.7709 42.8601C6.8084 43.6618 6.84798 44.4635 6.88965 45.2651C6.89472 45.362 6.93484 45.455 7.00469 45.5235C7.07451 45.592 7.16777 45.6305 7.26465 45.6305C7.36153 45.6305 7.45479 45.592 7.52461 45.5235C7.59445 45.455 7.63458 45.362 7.63965 45.2651C7.68132 44.4635 7.7209 43.6618 7.7584 42.8601C8.09074 35.7551 8.25945 28.6502 8.26453 21.5452L7.97331 22.2506C8.05112 22.1725 8.12889 22.0945 8.20664 22.0163C13.2967 16.9026 18.2671 11.6699 23.1179 6.31803C23.6569 5.72339 24.1944 5.12727 24.7304 4.52969Z" fill="url(#paint3_linear_54_113)"/>
<path d="M8.42823 21.6878C8.42823 21.8664 8.33293 22.0315 8.17823 22.1208L5.71407 23.5431C5.55943 23.6324 5.36908 23.6326 5.21441 23.5433L2.74996 22.1205C2.59536 22.0311 2.5003 21.8662 2.5003 21.6877L2.50001 18.8425C2.50001 18.6638 2.59532 18.4988 2.75001 18.4095L5.21417 16.9871C5.36881 16.8978 5.55916 16.8977 5.71383 16.9869L8.17828 18.4098C8.33288 18.4991 8.42794 18.664 8.42794 18.8426L8.42823 21.6878Z" fill="#2A2948" stroke="url(#paint4_linear_54_113)"/>
<rect x="16.6445" y="12.1652" width="2.04" height="2.04" rx="0.5" transform="rotate(90 16.6445 12.1652)" fill="url(#paint5_linear_54_113)" stroke="url(#paint6_linear_54_113)"/>
<rect x="8.85637" y="33.7852" width="2.04" height="2.04" rx="0.5" transform="rotate(135 8.85637 33.7852)" fill="url(#paint7_linear_54_113)" stroke="url(#paint8_linear_54_113)"/>
<defs>
<linearGradient id="paint0_linear_54_113" x1="20.1821" y1="15.6186" x2="13.8181" y2="21.9826" gradientUnits="userSpaceOnUse">
<stop stop-color="#FFC183"/>
<stop offset="1" stop-color="#8F7458"/>
</linearGradient>
<linearGradient id="paint1_linear_54_113" x1="11.9644" y1="35.3853" x2="11.9644" y2="26.2651" gradientUnits="userSpaceOnUse">
<stop stop-color="#FFC183"/>
<stop offset="1" stop-color="#8F7458"/>
</linearGradient>
<linearGradient id="paint2_linear_54_113" x1="12.9644" y1="0.265137" x2="12.9644" y2="65.2651" gradientUnits="userSpaceOnUse">
<stop stop-color="#FFC183"/>
<stop offset="1" stop-color="#8F7458"/>
</linearGradient>
<linearGradient id="paint3_linear_54_113" x1="15.8647" y1="4.26514" x2="15.8647" y2="61.2651" gradientUnits="userSpaceOnUse">
<stop stop-color="#FFC183"/>
<stop offset="1" stop-color="#8F7458"/>
</linearGradient>
<linearGradient id="paint4_linear_54_113" x1="8.92822" y1="22.2651" x2="2.00002" y2="18.2651" gradientUnits="userSpaceOnUse">
<stop stop-color="#FFC183"/>
<stop offset="1" stop-color="#8F7458"/>
</linearGradient>
<linearGradient id="paint5_linear_54_113" x1="18.6645" y1="11.6652" x2="18.6645" y2="14.7052" gradientUnits="userSpaceOnUse">
<stop stop-color="#FFC183"/>
<stop offset="1" stop-color="#8F7458"/>
</linearGradient>
<linearGradient id="paint6_linear_54_113" x1="18.6645" y1="11.6652" x2="18.6645" y2="14.7052" gradientUnits="userSpaceOnUse">
<stop stop-color="#FFC183"/>
<stop offset="1" stop-color="#8F7458"/>
</linearGradient>
<linearGradient id="paint7_linear_54_113" x1="11.0835" y1="33.7852" x2="11.0835" y2="36.8252" gradientUnits="userSpaceOnUse">
<stop stop-color="#FFC183"/>
<stop offset="1" stop-color="#8F7458"/>
</linearGradient>
<linearGradient id="paint8_linear_54_113" x1="11.0835" y1="33.7852" x2="11.0835" y2="36.8252" gradientUnits="userSpaceOnUse">
<stop stop-color="#FFC183"/>
<stop offset="1" stop-color="#8F7458"/>
</linearGradient>
</defs>
</svg>
