<svg width="22" height="22" viewBox="0 0 22 22" fill="none" xmlns="http://www.w3.org/2000/svg">
<path d="M19.5303 0.530302C19.3535 0.353525 19.1767 0.176748 19 -2.83122e-05C18.6538 0.287176 18.3092 0.575852 17.966 0.866003C14.8774 3.47735 11.908 6.20803 9.05803 9.05803C6.20803 11.908 3.47736 14.8774 0.866002 17.966C0.575854 18.3092 0.287177 18.6538 -2.83122e-05 19C0.176748 19.1767 0.353525 19.3535 0.530302 19.5303C0.876433 19.2431 1.22109 18.9544 1.56427 18.6643C4.65292 16.0529 7.62224 13.3222 10.4722 10.4722C13.3222 7.62224 16.0529 4.65292 18.6643 1.56427C18.9544 1.22109 19.2431 0.876431 19.5303 0.530302Z" fill="url(#paint0_linear_54_148)"/>
<path d="M21.5307 4.52969C21.5905 4.45583 21.6255 4.3628 21.6234 4.26652C21.6215 4.17027 21.5833 4.0793 21.5163 4.01263C21.4493 3.94597 21.3582 3.9082 21.2619 3.90666C21.1656 3.90509 21.0728 3.94051 20.9992 4.00059C20.9992 4.00059 20.9992 4.00059 20.9992 4.00059C20.683 4.2592 20.3683 4.51927 20.055 4.78082C17.2358 7.13474 14.5362 9.6077 11.9562 12.1997C9.3762 14.7917 6.9158 17.5028 4.575 20.3329C4.31491 20.6473 4.0563 20.9633 3.79916 21.2807C3.73942 21.3545 3.70443 21.4476 3.70646 21.5438C3.70844 21.6401 3.74663 21.7311 3.81361 21.7977C3.88059 21.8644 3.97173 21.9022 4.06799 21.9037C4.16428 21.9053 4.25714 21.8698 4.33072 21.8098C4.33072 21.8098 4.33072 21.8098 4.33072 21.8098C4.64692 21.5512 4.96164 21.2911 5.27489 21.0295C8.09409 18.6756 10.7937 16.2027 13.3737 13.6106C15.9537 11.0186 18.4141 8.30757 20.7549 5.47746C21.015 5.16301 21.2736 4.84708 21.5307 4.52969Z" fill="url(#paint1_linear_54_148)"/>
<path d="M13.563 14.0803C13.5019 14.2481 13.3559 14.3706 13.1799 14.4016L10.3778 14.8949C10.202 14.9259 10.0231 14.8609 9.90828 14.7241L8.07947 12.5439C7.96478 12.407 7.93189 12.2196 7.99299 12.0518L8.96629 9.37822C9.02742 9.21038 9.17345 9.08788 9.34937 9.05689L12.1515 8.5636C12.3273 8.53263 12.5062 8.59764 12.621 8.73439L14.4498 10.9146C14.5645 11.0515 14.5974 11.239 14.5363 11.4068L13.563 14.0803Z" fill="#2A2948" stroke="url(#paint2_linear_54_148)"/>
<defs>
<linearGradient id="paint0_linear_54_148" x1="9.76514" y1="0.265137" x2="9.76514" y2="65.2651" gradientUnits="userSpaceOnUse">
<stop stop-color="#FFC183"/>
<stop offset="1" stop-color="#8F7458"/>
</linearGradient>
<linearGradient id="paint1_linear_54_148" x1="12.6649" y1="4.26514" x2="12.6649" y2="61.2651" gradientUnits="userSpaceOnUse">
<stop stop-color="#FFC183"/>
<stop offset="1" stop-color="#8F7458"/>
</linearGradient>
<linearGradient id="paint2_linear_54_148" x1="13.8353" y1="14.7939" x2="8.69404" y2="8.66464" gradientUnits="userSpaceOnUse">
<stop stop-color="#FFC183"/>
<stop offset="1" stop-color="#8F7458"/>
</linearGradient>
</defs>
</svg>
